<svg xmlns="http://www.w3.org/2000/svg" width="29.258" height="24.688" viewBox="0 0 29.258 24.688">
  <path id="DoingIcon" d="M7.978,2.45a.686.686,0,0,0-.971,0L3.368,6.067,2.07,4.8a.686.686,0,0,0-.971,0l-.9.9a.686.686,0,0,0,0,.971l2.72,2.709a.73.73,0,0,0,1.006,0l.891-.893L8.944,4.364a.691.691,0,0,0,.005-.971Zm0,9.1a.686.686,0,0,0-.971,0L3.368,15.188l-1.3-1.263a.686.686,0,0,0-.971,0l-.9.9a.686.686,0,0,0,0,.971l2.713,2.714a.73.73,0,0,0,1.006,0l.9-.9,4.126-4.127a.686.686,0,0,0,.005-.966Zm-4.321,9.9a2.743,2.743,0,1,0,0,5.486,2.743,2.743,0,1,0,0-5.486Zm24.687.914H11.886a.914.914,0,0,0-.914.914v1.829a.914.914,0,0,0,.914.914H28.344a.914.914,0,0,0,.914-.914V23.279A.914.914,0,0,0,28.344,22.365Zm0-18.287H11.886a.914.914,0,0,0-.914.914V6.821a.914.914,0,0,0,.914.914H28.344a.914.914,0,0,0,.914-.914V4.993A.914.914,0,0,0,28.344,4.078Zm0,9.143H11.886a.914.914,0,0,0-.914.914v1.829a.914.914,0,0,0,.914.914H28.344a.914.914,0,0,0,.914-.914V14.136A.914.914,0,0,0,28.344,13.222Z" transform="translate(0 -2.248)" fill="#fe913e"/>
</svg>
