<svg xmlns="http://www.w3.org/2000/svg" width="20.01" height="16.936" viewBox="0 0 20.01 16.936">
  <g id="Icon_ionic-ios-log-out" data-name="Icon ionic-ios-log-out" transform="translate(-3.375 -5.625)">
    <path id="Path_660" data-name="Path 660" d="M16.077,19.674a.676.676,0,0,0-.674.674.869.869,0,0,1-.866.866H5.588a.869.869,0,0,1-.866-.866V7.838a.869.869,0,0,1,.866-.866h8.949a.869.869,0,0,1,.866.866.674.674,0,1,0,1.347,0,2.214,2.214,0,0,0-2.213-2.213H5.588A2.214,2.214,0,0,0,3.375,7.838V20.348a2.214,2.214,0,0,0,2.213,2.213h8.949a2.214,2.214,0,0,0,2.213-2.213A.676.676,0,0,0,16.077,19.674Z" fill="#fff"/>
    <path id="Path_661" data-name="Path 661" d="M21.227,11.025a.669.669,0,0,0-.476-.2.658.658,0,0,0-.476.2.671.671,0,0,0,0,.953l3.137,3.089H11.08a.674.674,0,1,0,0,1.347H23.426L20.366,19.5a.68.68,0,0,0,0,.953l0,0a.7.7,0,0,0,.472.188.65.65,0,0,0,.476-.2l3.974-3.965a.945.945,0,0,0,0-1.4Z" transform="translate(-2.22 -1.643)" fill="#fff"/>
  </g>
</svg>
