<svg id="Man" xmlns="http://www.w3.org/2000/svg" width="545.271" height="435.015" viewBox="0 0 545.271 435.015">
  <g id="Group_1194" data-name="Group 1194" transform="translate(358.57 387.3)">
    <path id="Path_619" data-name="Path 619" d="M431.994,484.333h10.514l5-40.554H431.992Z" transform="translate(-429.562 -443.778)" fill="#a0616a"/>
    <path id="Path_620" data-name="Path 620" d="M467.352,491.877h0a9.028,9.028,0,0,1,.5,2.972h0a3.568,3.568,0,0,1-3.568,3.568h-32.56a2.434,2.434,0,0,1-2.434-2.434v-1.356s-1.611-4.074,1.705-9.1c0,0,4.122,3.932,10.28-2.227l1.816-3.29,13.146,9.615,7.287.9c1.594.2,3.008-.03,3.828,1.351h0Z" transform="translate(-428.897 -451.56)" fill="#fff"/>
  </g>
  <g id="Group_1195" data-name="Group 1195" transform="translate(391.672 378.863)">
    <path id="Path_621" data-name="Path 621" d="M472.831,471.328l9.928,3.461,18.074-36.647-14.653-5.108Z" transform="translate(-469.494 -433.034)" fill="#a0616a"/>
    <path id="Path_622" data-name="Path 622" d="M506.011,491.369h0a9.028,9.028,0,0,1-.506,2.971h0a3.568,3.568,0,0,1-4.544,2.195l-30.745-10.72a2.434,2.434,0,0,1-1.5-3.1l.446-1.28s-.18-4.377,4.605-8.027c0,0,2.6,5.07,10.44,1.282l2.8-2.509,9.248,13.407,6.585,3.246c1.441.71,2.85.961,3.17,2.536h0Z" transform="translate(-468.581 -441.441)" fill="#fff"/>
  </g>
  <path id="Path_623" data-name="Path 623" d="M44.055,175.282H3.222a3.141,3.141,0,0,1,0-6.282H44.055a3.141,3.141,0,0,1,0,6.282Z" transform="translate(-0.017 -23.079)" fill="#e6e6e6"/>
  <rect id="Rectangle_622" data-name="Rectangle 622" width="153.187" height="0.785" transform="translate(0 119.497)" fill="#e6e6e6"/>
  <path id="Path_624" data-name="Path 624" d="M123.055,245.282H82.222a3.141,3.141,0,1,1,0-6.282h40.833a3.141,3.141,0,0,1,0,6.282Z" transform="translate(-16.983 -32.639)" fill="#e6e6e6"/>
  <rect id="Rectangle_623" data-name="Rectangle 623" width="153.187" height="0.785" transform="translate(62.035 179.861)" fill="#e6e6e6"/>
  <path id="Path_625" data-name="Path 625" d="M50.055,337.282H9.222a3.141,3.141,0,1,1,0-6.282H50.055a3.141,3.141,0,1,1,0,6.282Z" transform="translate(-1.306 -45.203)" fill="#e6e6e6"/>
  <rect id="Rectangle_624" data-name="Rectangle 624" width="153.187" height="0.785" transform="translate(4.711 259.197)" fill="#e6e6e6"/>
  <g id="Group_1196" data-name="Group 1196" transform="translate(134.628 226.646)">
    <path id="Path_626" data-name="Path 626" d="M177.069,294.959l-6.463-3.061c2.651,3.7,4.935,9.477,6.157,14.074,2.07-4.282,5.408-9.522,8.711-12.652l-6.83,1.757c4.209-20.627,20.039-35.435,38.167-35.435v-1.57c-18.935,0-35.445,15.428-39.743,36.888Z" transform="translate(-162.839 -258.071)" fill="#3f3d56"/>
    <path id="Path_627" data-name="Path 627" d="M204.689,343.353H163.856a3.141,3.141,0,0,1,0-6.282h40.833a3.141,3.141,0,0,1,0,6.282Z" transform="translate(-160.715 -275.036)" fill="#b6a3c2"/>
  </g>
  <g id="Group_1197" data-name="Group 1197" transform="translate(451.567 195.115)">
    <path id="Path_628" data-name="Path 628" d="M552.254,259.056l-6.463-3.061c2.651,3.7,4.935,9.476,6.157,14.074,2.07-4.282,5.408-9.522,8.711-12.652l-6.83,1.757c4.209-20.627,20.039-35.435,38.167-35.435v-1.57c-18.935,0-35.445,15.428-39.743,36.888Z" transform="translate(-538.024 -222.168)" fill="#3f3d56"/>
    <path id="Path_629" data-name="Path 629" d="M579.874,307.45H539.041a3.141,3.141,0,0,1,0-6.282h40.833a3.141,3.141,0,0,1,0,6.282Z" transform="translate(-535.9 -239.133)" fill="#b6a3c2"/>
  </g>
  <path id="Path_630" data-name="Path 630" d="M477.785,193l-45.221,6.605-24.666,3.6L425.174,412.87l19.631-.785,6.282-142.915L477,332.774l-15.7,78.525,19.631-.766,23.557-78.544-15.7-89.518Z" transform="translate(-64.028 -2.624)" fill="#707070"/>
  <path id="Path_631" data-name="Path 631" d="M458.3,62H432.86L412.221,215.818s12.288,22.619,36.642,1.322,35.6-3.429,35.6-3.429L458.3,62h0Z" transform="translate(-66.018 -13.315)" fill="#b6a3c2"/>
  <path id="Path_632" data-name="Path 632" d="M416.716,260.633,440.8,216.694l1.57-128.781L431.072,62l-6.758,10.993L403.9,85.638l3.957,55.682-1.4,36.168-.728,18.755c-2.545,11.24,1.98,57.21,10.993,64.39Z" transform="translate(-66.249 -13.315)" fill="#707070"/>
  <path id="Path_633" data-name="Path 633" d="M469.443,65.653l24.828,21.082L508.8,211.2l.254-.035c1.333,5.227,1.427,37.112-1.573,41.6L471.5,216.3,460.9,87.912l8.545-22.26Z" transform="translate(-75.068 -14.099)" fill="#707070"/>
  <g id="Group_1198" data-name="Group 1198" transform="translate(405.595 54.859)">
    <path id="Path_634" data-name="Path 634" d="M571.392,220.749c2.365,4.579,1.921,9.51-.993,11.015s-7.193-.986-9.558-5.565a12.9,12.9,0,0,1-1.519-5.9l-9.779-19.526,9.261-4.394L567.46,216.1a12.9,12.9,0,0,1,3.931,4.653h0Z" transform="translate(-492.857 -97.031)" fill="#a0616a"/>
    <path id="Path_635" data-name="Path 635" d="M477.355,69.861S495.761,84.721,501.44,89.9c3.018,2.753,23.255,45.236,23.255,45.236L552.8,184.093l-14.611,5.55L508.3,144.505l-25.812-29.776-5.137-44.868h0Z" transform="translate(-477.355 -69.861)" fill="#707070"/>
  </g>
  <g id="Group_1199" data-name="Group 1199" transform="translate(277.026 58.503)">
    <path id="Path_636" data-name="Path 636" d="M331.012,226.749c-2.365,4.579-1.921,9.51.993,11.015s7.193-.986,9.558-5.565a12.9,12.9,0,0,0,1.519-5.9l9.779-19.526-9.261-4.394L334.944,222.1a12.9,12.9,0,0,0-3.931,4.653Z" transform="translate(-329.493 -101.965)" fill="#a0616a"/>
    <path id="Path_637" data-name="Path 637" d="M410.3,74.5s-17.9,9.645-23.576,14.826c-3.018,2.753-23.255,51.518-23.255,51.518L335.357,189.8l14.611,5.55,29.889-45.138,20.315-25.064L410.3,74.5h0Z" transform="translate(-330.752 -74.503)" fill="#707070"/>
  </g>
  <circle id="Ellipse_8" data-name="Ellipse 8" cx="20.507" cy="20.507" r="20.507" transform="translate(359.004 3.436)" fill="#a0616a"/>
  <path id="Path_638" data-name="Path 638" d="M457.636,0S459.1,5.867,452.5.733c-2.407-1.872-5.485,1.142-8.068,1.467-4.5.566-8.068.138-8.068,2.934,0,1.787-2.374-.933-3.667-.733-1.891.291-2.934,2.934-2.934,2.934-2.864,1.823-5.134,5.867-.733,7.334-4.4,5.134-.322,7.75-.322,7.75L432.7,17.6c2.066,1.127,4.871,4.039,5.9,2.405,2.9-4.606,11.438.2,14.976-1.738,3.562-1.948,5.528,5.934,5.528,5.934l1.632.849s-.9-1.582,3.5-3.049c2.2-.733,2.75,1.467,2.75,3.85a15.7,15.7,0,0,1-2.093,7.685l-4.16,7.374,1.826-1.165a19.127,19.127,0,0,0,7.713-10.7,2.057,2.057,0,0,1,.265-.562l-.435-3.546,1.436,1.685a2.112,2.112,0,0,0,.031-1.685c-2.644-4.975,1.467-8.068-2.934-14.669C462.116.485,457.636,0,457.636,0h0Z" transform="translate(-69.658)" fill="#ababab"/>
  <path id="Path_639" data-name="Path 639" d="M289.56,503.1a.932.932,0,0,0,.934.934H575.768a.934.934,0,0,0,0-1.869H290.494a.932.932,0,0,0-.935.934Z" transform="translate(-31.431 -69.017)" fill="#ccc"/>
  <g id="Group_1200" data-name="Group 1200" transform="translate(174.207 173.697)">
    <path id="Path_640" data-name="Path 640" d="M238.772,238.762H214.145a5.754,5.754,0,0,1-5.747-5.747V205.247a5.754,5.754,0,0,1,5.747-5.747h24.627a5.754,5.754,0,0,1,5.747,5.747v27.768A5.754,5.754,0,0,1,238.772,238.762Z" transform="translate(-208.398 -199.5)" fill="#fff"/>
    <path id="Path_641" data-name="Path 641" d="M238.772,238.762H214.145a5.754,5.754,0,0,1-5.747-5.747V205.247a5.754,5.754,0,0,1,5.747-5.747h24.627a5.754,5.754,0,0,1,5.747,5.747c2.76,8.737,2.48,18.046,0,27.768A5.754,5.754,0,0,1,238.772,238.762Zm-24.627-38.477a4.967,4.967,0,0,0-4.962,4.962v27.768a4.967,4.967,0,0,0,4.962,4.962h24.627a4.967,4.967,0,0,0,4.962-4.962V205.247a4.967,4.967,0,0,0-4.962-4.962Z" transform="translate(-208.398 -199.5)" fill="#3f3d56"/>
    <path id="Path_642" data-name="Path 642" d="M237.934,220.146H217.642a1.561,1.561,0,1,1,0-3.122h20.292a1.561,1.561,0,1,1,0,3.122Z" transform="translate(-210.048 -203.263)" fill="#b6a3c2"/>
    <path id="Path_643" data-name="Path 643" d="M237.934,231.146H217.642a1.561,1.561,0,1,1,0-3.122h20.292a1.561,1.561,0,1,1,0,3.122Z" transform="translate(-210.048 -205.626)" fill="#b6a3c2"/>
  </g>
  <g id="Group_1201" data-name="Group 1201" transform="translate(7.274 91.152)">
    <path id="Path_644" data-name="Path 644" d="M40.988,143.955H16.361a5.754,5.754,0,0,1-5.747-5.747V110.44a5.754,5.754,0,0,1,5.747-5.747H40.989a5.754,5.754,0,0,1,5.747,5.747v27.768a5.754,5.754,0,0,1-5.747,5.747Z" transform="translate(-9.554 -104.693)" fill="#fff"/>
    <path id="Path_645" data-name="Path 645" d="M40.7,143.955H16.071a5.754,5.754,0,0,1-5.747-5.747c-1.238-10.225-1.58-19.748,0-27.768a5.754,5.754,0,0,1,5.747-5.747H40.7a5.754,5.754,0,0,1,5.747,5.747v27.768a5.754,5.754,0,0,1-5.747,5.747ZM16.071,105.478a4.967,4.967,0,0,0-4.962,4.962v27.768a4.967,4.967,0,0,0,4.962,4.962H40.7a4.967,4.967,0,0,0,4.962-4.962V110.44a4.967,4.967,0,0,0-4.962-4.962H16.071Z" transform="translate(-9.264 -104.693)" fill="#3f3d56"/>
    <path id="Path_646" data-name="Path 646" d="M40.15,125.339H19.858a1.561,1.561,0,1,1,0-3.122H40.15a1.561,1.561,0,1,1,0,3.122Z" transform="translate(-11.204 -108.456)" fill="#b6a3c2"/>
    <path id="Path_647" data-name="Path 647" d="M40.15,136.339H19.858a1.561,1.561,0,1,1,0-3.122H40.15a1.561,1.561,0,1,1,0,3.122Z" transform="translate(-11.204 -110.819)" fill="#b6a3c2"/>
    <path id="Path_648" data-name="Path 648" d="M40.15,114.339H19.858a1.561,1.561,0,1,1,0-3.122H40.15a1.561,1.561,0,1,1,0,3.122Z" transform="translate(-11.204 -106.094)" fill="#b6a3c2"/>
  </g>
  <g id="Group_1202" data-name="Group 1202" transform="translate(271.9 163.893)">
    <path id="Path_649" data-name="Path 649" d="M371.25,218.534l-18.4,16.365a5.754,5.754,0,0,1-8.114-.476,74.1,74.1,0,0,1-18.452-20.751,5.754,5.754,0,0,1,.476-8.114l18.4-16.365a5.754,5.754,0,0,1,8.114.476l18.452,20.751a5.754,5.754,0,0,1-.476,8.114h0Z" transform="translate(-324.831 -187.744)" fill="#fff"/>
    <path id="Path_650" data-name="Path 650" d="M371.25,218.534l-18.4,16.365a5.754,5.754,0,0,1-8.114-.476c-8.727-5.343-15.266-12.023-18.452-20.751a5.754,5.754,0,0,1,.476-8.114l18.4-16.365a5.754,5.754,0,0,1,8.114.476l18.452,20.751a5.754,5.754,0,0,1-.476,8.114h0Zm-43.972-12.389a4.967,4.967,0,0,0-.411,7.005c4.081,8.28,10.374,15.1,18.452,20.751a4.967,4.967,0,0,0,7.005.411l18.4-16.365a4.967,4.967,0,0,0,.411-7.005l-18.452-20.751a4.967,4.967,0,0,0-7.005-.411l-18.4,16.365Z" transform="translate(-324.831 -187.744)" fill="#3f3d56"/>
    <path id="Path_651" data-name="Path 651" d="M357.782,207.017,342.618,220.5a1.561,1.561,0,1,1-2.074-2.333l15.164-13.484a1.561,1.561,0,1,1,2.074,2.333h0Z" transform="translate(-328.093 -191.298)" fill="#b6a3c2"/>
    <path id="Path_652" data-name="Path 652" d="M365.091,215.237l-15.164,13.484a1.561,1.561,0,1,1-2.074-2.333L363.016,212.9a1.561,1.561,0,1,1,2.074,2.333h0Z" transform="translate(-329.663 -193.063)" fill="#b6a3c2"/>
    <path id="Path_653" data-name="Path 653" d="M350.472,198.8l-15.164,13.484a1.561,1.561,0,1,1-2.074-2.333L348.4,196.464a1.561,1.561,0,1,1,2.074,2.333Z" transform="translate(-326.523 -189.532)" fill="#b6a3c2"/>
  </g>
  <g id="Group_1203" data-name="Group 1203" transform="translate(57.805 243.518)">
    <path id="Path_654" data-name="Path 654" d="M105.988,318.955H81.361a5.754,5.754,0,0,1-5.747-5.747V285.44a5.754,5.754,0,0,1,5.747-5.747h24.627a5.754,5.754,0,0,1,5.747,5.747v27.768A5.754,5.754,0,0,1,105.988,318.955Z" transform="translate(-74.043 -279.693)" fill="#fff"/>
    <path id="Path_655" data-name="Path 655" d="M105.559,318.955H80.931a5.754,5.754,0,0,1-5.747-5.747,62.188,62.188,0,0,1,0-27.768,5.754,5.754,0,0,1,5.747-5.747h24.627a5.754,5.754,0,0,1,5.747,5.747v27.768A5.754,5.754,0,0,1,105.559,318.955ZM80.931,280.478a4.967,4.967,0,0,0-4.962,4.962v27.768a4.967,4.967,0,0,0,4.962,4.962h24.627a4.967,4.967,0,0,0,4.962-4.962V285.44a4.967,4.967,0,0,0-4.962-4.962Z" transform="translate(-73.614 -279.693)" fill="#3f3d56"/>
    <path id="Path_656" data-name="Path 656" d="M105.15,300.339H84.858a1.561,1.561,0,0,1,0-3.122H105.15a1.561,1.561,0,0,1,0,3.122Z" transform="translate(-75.693 -283.456)" fill="#b6a3c2"/>
  </g>
</svg>
