<svg xmlns="http://www.w3.org/2000/svg" width="22.999" height="21.944" viewBox="0 0 22.999 21.944">
  <path id="ToDoIcon" d="M32.821,22.365h-20.7a1.053,1.053,0,0,0-1.15.914v1.829a1.053,1.053,0,0,0,1.15.914h20.7a1.053,1.053,0,0,0,1.15-.914V23.279A1.053,1.053,0,0,0,32.821,22.365Zm0-18.287h-20.7a1.053,1.053,0,0,0-1.15.914V6.821a1.053,1.053,0,0,0,1.15.914h20.7a1.053,1.053,0,0,0,1.15-.914V4.993A1.053,1.053,0,0,0,32.821,4.078Zm0,9.143h-20.7a1.053,1.053,0,0,0-1.15.914v1.829a1.053,1.053,0,0,0,1.15.914h20.7a1.053,1.053,0,0,0,1.15-.914V14.136A1.053,1.053,0,0,0,32.821,13.222Z" transform="translate(-10.972 -4.078)" fill="#8e7ad2"/>
</svg>
