<svg xmlns="http://www.w3.org/2000/svg" width="200.933" height="401.5" viewBox="0 0 200.933 401.5">
  <g id="Woman" transform="translate(0 -66.536)">
    <path id="Path_601" data-name="Path 601" d="M137.2,392.495H73.21a9.765,9.765,0,0,1-9.754-9.754V318.754A9.765,9.765,0,0,1,73.21,309H137.2a9.765,9.765,0,0,1,9.754,9.754v63.987A9.765,9.765,0,0,1,137.2,392.495Z" transform="translate(-13.94 -53.263)" fill="#7e7b9b"/>
    <g id="Group_1186" data-name="Group 1186" transform="translate(85.66 133.361)">
      <path id="Path_602" data-name="Path 602" d="M123.722,299.147a7.93,7.93,0,0,0,2.672-11.863L137,216l-15.679.1-6.542,69.978a7.973,7.973,0,0,0,8.943,13.068Z" transform="translate(-110.275 -166.194)" fill="#ffb6b6"/>
      <path id="Path_603" data-name="Path 603" d="M125.79,152.224s-4.686-1.275-5.367,8.992c-.545,8.219-8.735,58.3-6.445,69.5a7.222,7.222,0,0,0-4.083,7.856l23.675-2.128c3.248-4.3,3.265-9.109,1.4-10.114l1.9-14.756,10.989-48.068-18.669-10.422-3.4-.861Z" transform="translate(-109.775 -152.173)" fill="#e6e6e6"/>
    </g>
    <g id="Group_1187" data-name="Group 1187" transform="translate(113.177 414.319)">
      <path id="Path_604" data-name="Path 604" d="M150.2,546.929h9l4.28-34.7H150.2Z" transform="translate(-146.171 -512.226)" fill="#ffb6b6"/>
      <path id="Path_605" data-name="Path 605" d="M161.054,556.019v-6.1l-2.365.145-9.628.57-2.228.137-1.7,20.427-.091,1.1h6.388l.205-1.088.928-4.943,2.4,4.943.525,1.088h16.936a3.827,3.827,0,0,0,3.8-3.81c.715-3.339-13.37-10.556-15.164-12.465Z" transform="translate(-145.038 -520.506)" fill="#fff"/>
    </g>
    <g id="Group_1188" data-name="Group 1188" transform="translate(69.231 405.263)">
      <path id="Path_606" data-name="Path 606" d="M99.574,534.045l10.052,1.986,9.364-31.993L108.9,500.62Z" transform="translate(-91.105 -500.62)" fill="#ffb6b6"/>
      <path id="Path_607" data-name="Path 607" d="M108.522,546.086l1.639-5.875-2.317-.5-9.427-2.038-2.183-.467L89.1,556.427l-.382,1.03,6.153,1.717.49-.992,2.222-4.512.979,5.405.213,1.189,16.313,4.552a3.827,3.827,0,0,0,4.687-2.648c1.586-3.024-10.04-13.761-11.256-16.082Z" transform="translate(-88.721 -508.658)" fill="#fff"/>
    </g>
    <path id="Path_608" data-name="Path 608" d="M184.478,297.663l.232-2.434L174.7,267.794l-42.645,8.223s-21.979,27.076-17.091,45c1.326,4.86,4.159,62.147,3.306,63.99-19.644,42.428-14.156,72.356-14.156,72.356a43.879,43.879,0,0,0,16.843,8.1c2.775.7,23.875-94.482,23.875-94.482s-.929,5.94-2.226,14.971c-4,27.9-10.294,84.068-4.706,86.976a28.342,28.342,0,0,0,14.475,3.135s23.064-69.3,18.176-85.592" transform="translate(-22.717 -44.211)" fill="#6e4b8f"/>
    <path id="Path_609" data-name="Path 609" d="M165.955,150.848l-13.171-14.165h0l-10.012-.582L129.28,150.068l-5,14.109h0a71.706,71.706,0,0,0-3.669,42.954l7.684,34.344s1.184,4.047-1.918,4.533-2.73,6.452-2.73,6.452.632,5.17-2.38,5.626-11.042.455-4.015,9.49,62.607-25.136,62.607-25.136l.269-42.357s15.655-21.027-1.2-33.07l-12.967-16.164Z" transform="translate(-25.141 -15.282)" fill="#e6e6e6"/>
    <path id="Path_610" data-name="Path 610" d="M202.2,322.495H138.21a9.765,9.765,0,0,1-9.754-9.754V248.754A9.765,9.765,0,0,1,138.21,239H202.2a9.765,9.765,0,0,1,9.754,9.754v63.987A9.765,9.765,0,0,1,202.2,322.495Z" transform="translate(-28.219 -37.886)" fill="#b6a3c2"/>
    <g id="Group_1189" data-name="Group 1189" transform="translate(114.662 135.033)">
      <path id="Path_611" data-name="Path 611" d="M201.715,282.432a7.93,7.93,0,0,0-1.633-12.05L185.16,199.875,170.5,205.437,188.776,273.3a7.973,7.973,0,0,0,12.939,9.128Z" transform="translate(-152.117 -164.324)" fill="#ffb6b6"/>
      <path id="Path_612" data-name="Path 612" d="M166.943,154.479s4.424-2,6.727,8.026c1.843,8.028,17.88,56.171,17.4,67.6a7.222,7.222,0,0,1,5.278,7.108l-23.712,1.658c-3.889-3.726-4.669-8.475-2.991-9.763l-4.22-14.267-18.481-45.714,16.778-13.254,3.224-1.391Z" transform="translate(-146.941 -154.316)" fill="#e6e6e6"/>
    </g>
    <path id="Path_613" data-name="Path 613" d="M202.9,544.65a1.771,1.771,0,0,0,1.283-3.069l-.121-.482.048-.116a4.755,4.755,0,0,1,8.772.033c1.435,3.455,3.261,6.917,3.711,10.57a14.069,14.069,0,0,1-.247,4.838A56.4,56.4,0,0,0,221.474,533a54.441,54.441,0,0,0-.338-6.073q-.28-2.48-.776-4.924a57.057,57.057,0,0,0-11.315-24.182,15.184,15.184,0,0,1-6.315-6.552,11.583,11.583,0,0,1-1.053-3.165c.307.04,1.159-4.642.927-4.929.428-.65,1.2-.973,1.663-1.608,2.327-3.155,5.533-2.6,7.207,1.683,3.576,1.8,3.61,4.8,1.416,7.676-1.4,1.831-1.588,4.309-2.812,6.27.126.161.257.318.383.479a57.427,57.427,0,0,1,5.994,9.5,23.872,23.872,0,0,1,1.425-11.088c1.364-3.291,3.921-6.062,6.173-8.907a4.9,4.9,0,0,1,8.727,2.406l.014.126q-.5.283-.982.6a2.4,2.4,0,0,0,.968,4.371l.049.008a23.9,23.9,0,0,1-.63,3.573c2.889,11.171-3.348,15.24-12.252,15.422-.2.1-.388.2-.585.3a58.613,58.613,0,0,1,3.155,14.848,55.593,55.593,0,0,1-.04,8.976l.015-.106a14.69,14.69,0,0,1,5.015-8.482c3.859-3.17,9.311-4.338,13.475-6.886a2.757,2.757,0,0,1,4.223,2.682l-.017.111a16.144,16.144,0,0,0-1.809.872q-.5.283-.982.6a2.4,2.4,0,0,0,.968,4.371l.049.008.1.015a23.921,23.921,0,0,1-4.4,6.89c-1.806,9.752-9.564,10.677-17.862,7.837h-.005a58.6,58.6,0,0,1-3.936,11.491H203.249c-.05-.156-.1-.318-.141-.474A15.978,15.978,0,0,0,207,556.5c-1.043-1.28-2.087-2.57-3.13-3.851a.871.871,0,0,1-.066-.076c-.529-.655-1.063-1.305-1.593-1.961h0a23.4,23.4,0,0,1,.686-5.962h0Z" transform="translate(-44.303 -90.729)" fill="#f2f2f2"/>
    <path id="Path_614" data-name="Path 614" d="M49.672,546.65a1.771,1.771,0,0,1-1.283-3.069l.121-.482-.048-.116a4.755,4.755,0,0,0-8.772.033c-1.435,3.455-3.261,6.917-3.711,10.57a14.068,14.068,0,0,0,.247,4.838A56.4,56.4,0,0,1,31.1,535a54.441,54.441,0,0,1,.338-6.073q.28-2.48.776-4.924a57.057,57.057,0,0,1,11.315-24.182,15.184,15.184,0,0,0,6.315-6.552,11.583,11.583,0,0,0,1.053-3.165c-.307.04-1.159-4.642-.927-4.929-.428-.65-1.2-.973-1.663-1.608-2.327-3.155-5.533-2.6-7.207,1.683-3.576,1.8-3.61,4.8-1.416,7.676,1.4,1.831,1.588,4.309,2.812,6.27-.126.161-.257.318-.383.479a57.425,57.425,0,0,0-5.994,9.5,23.872,23.872,0,0,0-1.425-11.088c-1.364-3.291-3.921-6.062-6.173-8.907a4.9,4.9,0,0,0-8.727,2.406q-.007.063-.014.126.5.283.982.6a2.4,2.4,0,0,1-.968,4.371l-.049.008a23.9,23.9,0,0,0,.63,3.573c-2.889,11.171,3.348,15.24,12.252,15.422.2.1.388.2.585.3a58.614,58.614,0,0,0-3.155,14.848,55.592,55.592,0,0,0,.04,8.976l-.015-.106a14.691,14.691,0,0,0-5.015-8.482c-3.859-3.17-9.311-4.338-13.475-6.886a2.757,2.757,0,0,0-4.223,2.682l.017.111a16.132,16.132,0,0,1,1.809.872q.5.283.982.6a2.4,2.4,0,0,1-.968,4.371l-.049.008-.1.015a23.919,23.919,0,0,0,4.4,6.89c1.806,9.752,9.564,10.677,17.862,7.837h.005A58.6,58.6,0,0,0,35.258,559.2H49.32c.05-.156.1-.318.141-.474a15.981,15.981,0,0,1-3.891-.232c1.043-1.28,2.087-2.57,3.13-3.851a.873.873,0,0,0,.066-.076c.529-.655,1.063-1.305,1.593-1.961h0a23.4,23.4,0,0,0-.686-5.962h0Z" transform="translate(-1.611 -91.169)" fill="#f2f2f2"/>
    <path id="Path_615" data-name="Path 615" d="M0,579.212a.926.926,0,0,0,.929.929H198.577a.929.929,0,0,0,0-1.857H.929A.926.926,0,0,0,0,579.212Z" transform="translate(0 -112.418)" fill="#ccc"/>
    <g id="Group_1190" data-name="Group 1190" transform="translate(90.942 66.536)">
      <circle id="Ellipse_7" data-name="Ellipse 7" cx="19.068" cy="19.068" r="19.068" transform="translate(17.563 6.887)" fill="#ffb6b6"/>
      <path id="Path_616" data-name="Path 616" d="M186.344,98.844c.055,0,.187,0,.437.008C187.507,98.9,186.523,98.859,186.344,98.844Z" transform="translate(-131.877 -73.633)" fill="#2f2e41"/>
      <path id="Path_617" data-name="Path 617" d="M181.163,89.928a2,2,0,0,1-1.249.851,12.043,12.043,0,0,0-4.659-3.629,20.781,20.781,0,0,1,1.99,4.237,39.629,39.629,0,0,1-5.017.375c-.3,0-.57,0-.78-.008-.312-.554-.812-1.451-1.241-2.38-.039,2.536-3.574,10.012-3.285,16.332.351,7.561.749,15.809.749,15.809a28.369,28.369,0,0,1-4.565.687,40.217,40.217,0,0,1-4.144-11.549c-.086-.429-.156-.858-.226-1.288-.164.492-.32.991-.453,1.5a30.52,30.52,0,0,0-1.038,6.734,38.4,38.4,0,0,0,.07,4.729c-9.629,1.959-21.537,1.756-30.152-3.028a13.745,13.745,0,0,0,.648-2.427c.468-2.716-3.309-3.1-5.821-1.436a20.864,20.864,0,0,1-5.447-9.723c16.418-7.2-.866-16.067,11.814-28.841-1.529-11.1,29.106-14.3,35.037-4.44,1.3-.983,5.33-.936,7.046-.219a15.562,15.562,0,0,1,4.339,3.1c.866.8.46,2.38-.094,3.566,2.723-1.3,8.8,5.47,6.477,11.049Z" transform="translate(-116.544 -66.536)" fill="#706f7b"/>
    </g>
  </g>
</svg>
